<?xml version="1.0" encoding="UTF-8"?>
<svg id="logo_officiel_Covaulty_version_sans_fond_rouge_claire" data-name="logo officiel Covaulty version sans fond rouge claire" xmlns="http://www.w3.org/2000/svg" viewBox="0 0 1000 1000">
  <defs>
    <style>
      .cls-1 {
        fill: #262626;
      }

      .cls-2 {
        font-family: ClashDisplay-Bold, 'Clash Display';
        font-size: 130.35px;
        font-weight: 700;
        letter-spacing: .02em;
      }

      .cls-2, .cls-3 {
        fill: #b3001b;
      }

      .cls-4 {
        fill: #f8dcd4;
      }
    </style>
  </defs>
  <text class="cls-2" transform="translate(188.74 667.15)"><tspan x="0" y="0">Covaulty</tspan></text>
  <g>
    <path class="cls-3" d="M617.5,418.94c0,2.86-.1,5.69-.31,8.5h-44.69c.33-2.79.5-5.62.5-8.5,0-4.26-.37-8.44-1.07-12.5-5.93-34.37-35.87-60.5-71.93-60.5-40.32,0-73,32.68-73,73,0,30.78,19.05,57.11,46,67.85,6.58,2.62,13.64,4.31,21,4.9v44.6c-7.19-.36-14.21-1.37-21-2.97-51.88-12.2-90.5-58.78-90.5-114.38,0-64.89,52.61-117.5,117.5-117.5,60.67,0,110.6,45.98,116.84,105,.44,4.11.66,8.28.66,12.5Z"/>
    <g>
      <ellipse class="cls-1" cx="541.98" cy="480.4" rx="44.35" ry="49.45" transform="translate(-118.72 183.76) rotate(-17.37)"/>
      <ellipse class="cls-4" cx="547.98" cy="478.4" rx="44.35" ry="49.45" transform="translate(-117.85 185.46) rotate(-17.37)"/>
      <ellipse class="cls-3" cx="547.98" cy="478.4" rx="38.94" ry="43.43" transform="translate(-117.85 185.46) rotate(-17.37)"/>
    </g>
  </g>
</svg>