<?xml version="1.0" encoding="UTF-8"?>
<svg id="Icône_app_version_rouge" data-name="Icône app version rouge" xmlns="http://www.w3.org/2000/svg" viewBox="0 0 1024 1024">
  <defs>
    <style>
      .cls-1 {
        fill: #262626;
      }

      .cls-2 {
        fill: #f8dcd4;
      }

      .cls-3 {
        fill: #b3001b;
      }
    </style>
  </defs>
  <path class="cls-3" d="M881.24,512.24c0,8.99-.31,17.88-.97,26.71h-140.44c1.04-8.77,1.57-17.66,1.57-26.71,0-13.39-1.16-26.52-3.36-39.28-18.63-108.01-112.72-190.12-226.03-190.12-126.7,0-229.4,102.69-229.4,229.4,0,96.72,59.86,179.46,144.55,213.21,20.68,8.23,42.86,13.54,65.99,15.4v140.15c-22.59-1.13-44.65-4.31-65.99-9.33-163.03-38.34-284.39-184.71-284.39-359.43,0-203.91,165.32-369.24,369.24-369.24,190.65,0,347.55,144.49,367.16,329.96,1.38,12.92,2.07,26.02,2.07,39.28Z"/>
  <g>
    <ellipse class="cls-1" cx="643.92" cy="705.37" rx="139.35" ry="155.4" transform="translate(-181.25 224.46) rotate(-17.37)"/>
    <ellipse class="cls-2" cx="662.77" cy="699.08" rx="139.35" ry="155.4" transform="translate(-178.51 229.81) rotate(-17.37)"/>
    <ellipse class="cls-3" cx="662.77" cy="699.08" rx="122.37" ry="136.47" transform="translate(-178.51 229.81) rotate(-17.37)"/>
  </g>
</svg>